<?xml version="1.0" encoding="utf-8" ?>
<svg xmlns="http://www.w3.org/2000/svg" xmlns:xlink="http://www.w3.org/1999/xlink" width="2008" height="2020">
	<path fill="#235789" d="M974.804 1.48495C1039.01 0.337404 1102.21 3.18063 1165.75 13.0355C1430.66 54.456 1668.2 199.606 1825.94 416.449C1884.05 496.243 1930.13 584.14 1962.69 677.326C1975.58 714.165 1989.26 750.461 1982.82 790.167C1976.77 827.773 1955.9 861.384 1924.88 883.477C1893.84 905.543 1855.24 914.207 1817.75 907.521C1770.68 898.991 1730.98 867.511 1711.95 823.622C1707.22 812.962 1704.15 801.559 1700.42 790.527C1694.71 773.63 1688.29 756.982 1681.18 740.626C1661.87 695.986 1638.17 653.373 1610.44 613.413C1500.47 455.836 1332.29 348.52 1143.06 315.164C954.471 281.959 760.414 324.982 603.523 434.782C447.348 544.113 340.735 710.769 306.939 898.401C272.824 1087.51 315.391 1282.42 425.238 1440.08C535.31 1597.86 703.763 1705.21 893.258 1738.34C1075.28 1770.16 1272.4 1730.4 1424.25 1623.64C1441.98 1613.2 1458.81 1598.99 1474.75 1586.04C1569.22 1508.98 1642.64 1409.26 1688.16 1296.17C1694.08 1281.28 1699.51 1266.19 1704.46 1250.95C1713.92 1221.85 1721.38 1195.32 1742.15 1171.76C1766.57 1144.18 1801.03 1127.56 1837.81 1125.59C1874.24 1123.8 1909.89 1136.57 1936.89 1161.09C1963.85 1185.46 1980.04 1219.53 1981.93 1255.83C1983.65 1288.09 1971.7 1317.22 1961.14 1347.01C1917.33 1470.65 1849.8 1584.55 1762.35 1682.31C1583.57 1882.35 1332.49 2002.95 1064.61 2017.47C796.98 2031.9 534.594 1939.31 335.285 1760.1C135.941 1580.84 16.1387 1329.6 2.32935 1061.85C-11.2014 796.094 80.6249 535.726 257.875 337.266C403.211 174.924 597.133 63.9229 810.711 20.8213C865.115 9.98227 919.464 4.30286 974.804 1.48495Z"/>
	<path fill="#5FD393" d="M1095.65 567.317C1096.54 567.247 1097.42 567.169 1098.3 567.151C1107.37 566.967 1116.67 568.315 1125.81 568.382L1218.13 568.434L1279.87 568.367C1290.62 568.358 1302.27 567.519 1312.9 568.829C1317.18 569.357 1321.38 570.943 1324.44 574.068C1332.19 581.98 1334.74 593.845 1335.49 604.55C1336.38 617.337 1335.65 630.421 1335.6 643.248L1335.5 710.851L1335.53 929.434L1335.48 1597.11C1315.93 1610.29 1292.4 1619.89 1270.99 1629.7C1208.97 1655.64 1144.56 1673.65 1077.56 1680.4L1077.57 865.481L1077.55 699.049C1077.55 679.227 1075.03 598.946 1079.99 584.868C1083.15 575.893 1087.27 571.537 1095.65 567.317Z"/>
	<path fill="#AAF683" d="M774.389 697.503C775.216 697.44 776.044 697.37 776.873 697.353C785.938 697.164 795.23 698.375 804.362 698.427L899.728 698.494L960.597 698.395C971.06 698.383 982.468 697.525 992.797 698.996C997.387 699.649 1001.36 702.149 1004.61 705.363C1011.05 711.743 1013.3 722.992 1013.94 731.799C1014.77 743.257 1014.07 755.129 1014.03 766.636L1013.93 829.887L1013.94 1033.94L1014.08 1684.61C1009.83 1684.27 1005.55 1684.2 1001.29 1684.05C921.907 1685.45 828.537 1665.16 755.977 1633.23C757.384 1605.48 756.175 1577.05 756.176 1549.24L756.173 1387.56L756.176 890.66L756.179 780.588C756.15 762.328 754.969 743.429 756.237 725.249C756.536 720.955 757.103 716.658 758.72 712.641C761.767 705.076 767.144 700.791 774.389 697.503Z"/>
	<path fill="#FCE199" d="M448.248 824.612C455.264 824.02 462.854 825.094 469.928 825.239C482.644 825.5 495.385 825.394 508.104 825.412L650.951 825.341C660.631 825.39 671.796 824.793 678.95 832.558C684.109 838.158 686.609 846.887 687.104 854.32C687.791 864.621 687.214 875.315 687.179 885.646L687.078 945.315L687.103 1134.82L687.121 1436.29C687.133 1490.43 688.052 1544.72 686.891 1598.83C683.648 1596.66 680.242 1594.69 676.918 1592.64C586.485 1537.8 506.941 1458.96 454.113 1367.05C446.265 1353.4 437.305 1339.29 431.541 1324.65C430.464 1321.91 429.759 1319.28 429.61 1316.33C428.339 1291.35 429.242 1265.93 429.241 1240.9L429.25 1101.84L429.282 937.259C429.284 908.928 428.41 880.293 429.384 851.991C429.551 847.158 429.683 842.284 431.77 837.832C435.077 830.78 441.151 827.073 448.248 824.612Z"/>
	<path fill="#FCE199" d="M1418.39 952.128C1427.3 951.991 1436.36 952.968 1445.32 952.998L1532.22 952.99C1562.99 952.977 1598.06 951.249 1628.39 953.228C1633.43 953.557 1641.73 954.397 1645.94 957.249C1651.87 961.272 1654.4 969.126 1655.32 975.894C1656.59 985.218 1655.26 995.577 1655.09 1005C1654.87 1021.01 1654.8 1037.02 1654.89 1053.03L1655.1 1106.72C1655.21 1118.12 1656.03 1129.89 1654.88 1141.24C1652.79 1161.93 1647.26 1183.31 1641.87 1203.36C1618.15 1291.56 1576.22 1369.92 1519.71 1441.34C1484.17 1484.89 1443.19 1523.69 1397.77 1556.81C1396.22 1437.88 1397.65 1318.7 1397.66 1199.75L1397.64 1051.41C1397.63 1026.28 1396.73 1000.77 1397.68 975.669C1397.86 970.903 1398.2 965.668 1400.93 961.597C1404.91 955.653 1411.76 953.538 1418.39 952.128Z"/>
</svg>
